<?xml version="1.0" ?><!DOCTYPE svg  PUBLIC '-//W3C//DTD SVG 1.1//EN'  'http://www.w3.org/Graphics/SVG/1.1/DTD/svg11.dtd'><svg enable-background="new 0 0 31 28" height="28px" id="Layer_1" version="1.1" viewBox="0 0 31 28" width="31px" xml:space="preserve" xmlns="http://www.w3.org/2000/svg" xmlns:xlink="http://www.w3.org/1999/xlink"><g><path d="M11.343,24.409l-0.053-0.317l-0.225-1.346l-1.364,0.02c-0.053,0.001-0.104,0.004-0.17,0.008   c-4.464-0.015-8.092-3.65-8.092-8.119c0-3.82,2.656-7.024,6.217-7.884c0.27-0.619,0.588-1.211,0.947-1.775   c-4.912,0.48-8.751,4.621-8.751,9.659c0,5.361,4.346,9.707,9.707,9.707c0.056,0,0.109-0.008,0.164-0.008l0.583,3.492l3.891-4.169   c-0.502-0.227-0.987-0.483-1.452-0.77L11.343,24.409z" fill="#231F20"/><path d="M19.482,0.205c-6.467,0-11.709,5.242-11.709,11.709s5.242,11.709,11.709,11.709   c0.066,0,0.132-0.01,0.197-0.01l0.703,4.213l6.116-6.554c2.77-2.08,4.595-5.351,4.688-9.059c0.002-0.1,0.003-0.2,0.003-0.3   C31.19,5.447,25.948,0.205,19.482,0.205z" fill="#231F20"/></g></svg>